# xmcd CD database file
#
# Track frame offsets:
#	150
#	12031
#	25898
#	37261
#	51128
#	66808
#	86688
#	101283
#	113548
#	131498
#	143070
#	156089
#	169362
#	182186
#
# Disc length: 2661 seconds
#
# Revision: 0
# Processed by: cddbd v1.5.1PL0 Copyright (c) Steve Scherf et al.
# Submitted via: CDex 1.50beta9
#
DISCID=b50a630e
DTITLE=Hugh McMonagle - Inishowen
DYEAR=1900
DGENRE=Country
TTITLE0=Inishowen
TTITLE1=Noreen Bawn
TTITLE2=Mother's Prayer
TTITLE3=Old Love Letters
TTITLE4=Will The Circle Be Unbroken
TTITLE5=Nobody's Child
TTITLE6=Fooling Around
TTITLE7=Today
TTITLE8=Whisky and wine
TTITLE9=Smokey London Town
TTITLE10=Thelina
TTITLE11=What God Has Joined Together
TTITLE12=Country Roads
TTITLE13=Donegal We're Going home
EXTD=
EXTT0=
EXTT1=
EXTT2=
EXTT3=
EXTT4=
EXTT5=
EXTT6=
EXTT7=
EXTT8=
EXTT9=
EXTT10=
EXTT11=
EXTT12=
EXTT13=
PLAYORDER=
